# xmcd
#
# Track frame offsets: 
#        150
#        16653
#        31121
#        44698
#        57041
#        73033
#        87564
#        102569
#        118196
#        131536
#        145201
#        158949
#        173574
#        187389
#        200497
#        214020
#        226776
#        241258
#        255536
#        269395
#        283265
#        298900
#        314037
#
# Disc length: 4376 seconds
#
# Revision: 0
# Processed by: cddbd v1.5.2PL0 Copyright (c) Steve Scherf et al.
# Submitted via: ExactAudioCopy v0.99pb5
#
DISCID=64111617
DTITLE=Various Artist - Barrelhouse Blues - Disc 2
DYEAR=2010
DGENRE=Blues
TTITLE0=Tommy Johnson - Canned Heat Blues
TTITLE1=Sleepy John Estes - Street Car Blues
TTITLE2=Lucille Bogan - Pawn Shop Blues
TTITLE3=Memphis Minnie And Kansas Joe - I'm Talkin' About You
TTITLE4=Rosie Mae Moore - Stranger Blues
TTITLE5=Bessie Tucker - T B Moan
TTITLE6=Lillian Glinn - Shake It Down
TTITLE7=Cleo Gibson - Got Ford Engine Movements In My Hips
TTITLE8=Bobbie Cadillac - Easin' In
TTITLE9=Lillian Clinn - Where Have All The Black Men Gone?
TTITLE10=Minnie Wallace - Dirty Butter
TTITLE11=Leola Manning - Satan Is Busy In Knoxville
TTITLE12=Leola Manning - He Cares For Me
TTITLE13=Whistlin Alex Moore - West Texas Woman
TTITLE14=Memphis Jug Band - Feed Your Friends With A Long-Handled Spoo
TTITLE14=n
TTITLE15=Eddie And Oscar - Flying Crow Blues
TTITLE16=Blind Sammie - Travelin' Blues
TTITLE17=Joe Calicott - Fare Thee Well Blues
TTITLE18=Tartar And Gay - Unknown Blues
TTITLE19=Ollis Martin - Police And High Sheriff Come Ridin' Down
TTITLE20=Lonnie Johnson - Broken Levee Blues
TTITLE21=Willie Jackson - Old New Orleans Blues
TTITLE22=Mississippi Sheiks - The Jazz Fiddler
EXTD=
EXTT0=
EXTT1=
EXTT2=
EXTT3=
EXTT4=
EXTT5=
EXTT6=
EXTT7=
EXTT8=
EXTT9=
EXTT10=
EXTT11=
EXTT12=
EXTT13=
EXTT14=
EXTT15=
EXTT16=
EXTT17=
EXTT18=
EXTT19=
EXTT20=
EXTT21=
EXTT22=
PLAYORDER=
